<?xml version="1.0" encoding="UTF-8"?>
<svg width="21px" height="21px" viewBox="0 0 21 21" version="1.1" xmlns="http://www.w3.org/2000/svg" xmlns:xlink="http://www.w3.org/1999/xlink">
    <!-- Generator: Sketch 51.1 (57501) - http://www.bohemiancoding.com/sketch -->
    <title>noun_collapse_1701605</title>
    <desc>Created with Sketch.</desc>
    <defs></defs>
    <g id="Page-1" stroke="none" stroke-width="1" fill="none" fill-rule="evenodd">
        <g id="Admin_project_payment_main" transform="translate(-1322.000000, -246.000000)" fill="#202020" fill-rule="nonzero">
            <g id="noun_collapse_1701605" transform="translate(1322.000000, 246.000000)">
                <path d="M7.875,8.55799373 L1.509375,8.55799373 C1.3125,8.55799373 1.18125,8.49216301 1.05,8.36050157 C0.91875,8.22884013 0.853125,8.09717868 0.853125,7.89968652 C0.853125,7.50470219 1.115625,7.24137931 1.509375,7.24137931 L6.234375,7.24137931 L0.196875,1.11912226 C-0.065625,0.855799373 -0.065625,0.460815047 0.196875,0.197492163 C0.459375,-0.065830721 0.853125,-0.065830721 1.115625,0.197492163 L7.153125,6.2539185 L7.153125,1.51410658 C7.153125,1.11912226 7.415625,0.855799373 7.809375,0.855799373 C8.203125,0.855799373 8.465625,1.11912226 8.465625,1.51410658 L8.465625,7.89968652 C8.465625,7.96551724 8.465625,8.09717868 8.4,8.1630094 C8.334375,8.29467085 8.203125,8.42633229 8.071875,8.49216301 C8.00625,8.49216301 7.940625,8.55799373 7.875,8.55799373 Z M13.125,12.507837 L19.490625,12.507837 C19.6875,12.507837 19.81875,12.5736677 19.95,12.7053292 C20.08125,12.8369906 20.146875,12.968652 20.146875,13.1661442 C20.146875,13.5611285 19.884375,13.8244514 19.490625,13.8244514 L14.765625,13.8244514 L20.803125,19.8808777 C21.065625,20.1442006 21.065625,20.539185 20.803125,20.8025078 C20.540625,21.0658307 20.146875,21.0658307 19.884375,20.8025078 L13.78125,14.8119122 L13.78125,19.5517241 C13.78125,19.9467085 13.51875,20.2100313 13.125,20.2100313 C12.73125,20.2100313 12.46875,19.9467085 12.46875,19.5517241 L12.46875,13.1661442 C12.46875,13.1003135 12.46875,12.968652 12.534375,12.9028213 C12.6,12.7711599 12.73125,12.6394984 12.8625,12.5736677 C12.99375,12.5736677 13.059375,12.507837 13.125,12.507837 Z" id="Shape"></path>
            </g>
        </g>
    </g>
</svg>