<?xml version="1.0" encoding="UTF-8"?>
<svg width="24px" height="21px" viewBox="0 0 24 21" version="1.1" xmlns="http://www.w3.org/2000/svg" xmlns:xlink="http://www.w3.org/1999/xlink">
    <!-- Generator: Sketch 51.1 (57501) - http://www.bohemiancoding.com/sketch -->
    <title>noun_Hamburger_1194167</title>
    <desc>Created with Sketch.</desc>
    <defs></defs>
    <g id="Page-1" stroke="none" stroke-width="1" fill="none" fill-rule="evenodd">
        <g id="Admin_project_payment_main" transform="translate(-1314.000000, -229.000000)" fill="#202020" fill-rule="nonzero">
            <g id="noun_Hamburger_1194167" transform="translate(1314.000000, 229.000000)">
                <path d="M22.4194507,2.630307 L1.66123428,2.630307 C0.944154737,2.630307 0.363073026,2.0492253 0.363073026,1.33351947 C0.363073026,0.616439934 0.944154737,0.0353582368 1.66123428,0.0353582368 L22.4194507,0.0353582368 C23.1351564,0.0353582368 23.7162382,0.616439934 23.7162382,1.33351947 C23.7162382,2.0492253 23.1351564,2.630307 22.4194507,2.630307" id="Shape"></path>
                <path d="M22.4194507,11.7123529 L1.66123428,11.7123529 C0.944154737,11.7123529 0.363073026,11.1312712 0.363073026,10.4155654 C0.363073026,9.69848592 0.944154737,9.11740421 1.66123428,9.11740421 L22.4194507,9.11740421 C23.1351564,9.11740421 23.7162382,9.69848592 23.7162382,10.4155654 C23.7162382,11.1312712 23.1351564,11.7123529 22.4194507,11.7123529" id="Shape"></path>
                <path d="M22.4194507,20.7943988 L1.66123428,20.7943988 C0.944154737,20.7943988 0.363073026,20.2133172 0.363073026,19.4976113 C0.363073026,18.7805318 0.944154737,18.1994501 1.66123428,18.1994501 L22.4194507,18.1994501 C23.1351564,18.1994501 23.7162382,18.7805318 23.7162382,19.4976113 C23.7162382,20.2133172 23.1351564,20.7943988 22.4194507,20.7943988" id="Shape"></path>
            </g>
        </g>
    </g>
</svg>